<svg xmlns="http://www.w3.org/2000/svg" width="122px" height="122px" viewBox="0 0 122 122" version="1.1"><title>Bitcoin</title><g stroke="none" stroke-width="1" fill="none" fill-rule="evenodd"><g transform="translate(-659.000000, -3262.000000)" fill="#FF9A1C"><g transform="translate(0.000000, 2880.000000)"><path d="M720 504C753.68937 504 781 476.68937 781 443 781 409.31063 753.68937 382 720 382 686.31063 382 659 409.31063 659 443 659 476.68937 686.31063 504 720 504ZM738 440C738 440 745 439 745 429 745 417.8 730 416.2 726 416L726 405 720 405 720 416 714 416 714 405 708 405 708 416 693 416 693 423 700 423C700 423 702 423 702 424L702 462C702 463 700 463 700 463L693 463 693 470 708 470 708 482 714 482 714 470 720 470 720 482 726 482 726 470 727 470C727 470 749 471 749 454 749 443 738 440 738 440L738 440 738 440ZM714 423L722 423C722 423 731 423 731 431 731 439 722 439 722 439L714 439 714 423 714 423ZM725 462L714 462 714 446 724 446C724 446 735 446 735 454 735 462 725 462 725 462L725 462 725 462Z"/></g></g></g></svg>