<svg xmlns="http://www.w3.org/2000/svg" width="116px" height="28px" viewBox="0 0 116 28" version="1.1"><title>LOGO CIVIC</title><g stroke="none" stroke-width="1" fill="none" fill-rule="evenodd"><path d="M116.027049 23.7702866C113.484129 26.3796114 109.931296 28 106 28 98.2680135 28 92 21.7319865 92 14 92 6.2680135 98.2680135 0 106 0 109.931296 0 113.484129 1.62038858 116.027049 4.22971345L112.789371 6.6579714C111.006198 5.00822391 108.620841 4 106 4 100.477153 4 96 8.4771525 96 14 96 19.5228475 100.477153 24 106 24 108.620841 24 111.006198 22.9917761 112.789371 21.3420286L116.027049 23.7702866 116.027049 23.7702866ZM24.4388904 23.3291678C21.875279 26.1957493 18.1483422 28 14 28 6.2680135 28 0 21.7319865 0 14 0 6.2680135 6.2680135 0 14 0 18.1483422 0 21.875279 1.80425074 24.4388904 4.67083217L21.2222029 7.08334786C19.4019303 5.18317424 16.8391377 4 14 4 8.4771525 4 4 8.4771525 4 14 4 19.5228475 8.4771525 24 14 24 16.8391377 24 19.4019303 22.8168258 21.2222029 20.9166521L24.4388904 23.3291678 24.4388904 23.3291678ZM31 1L31 27 36 27 36 1 31 1ZM80 1L80 27 85 27 85 1 80 1ZM58 27L73 1 43 1 58 27Z" fill="#231F20"/></g></svg>