<svg xmlns="http://www.w3.org/2000/svg" width="1232" height="298" viewBox="0 0 1232 298"><title>logo-civic</title><g fill="none"><path d="M1231.2 253.4C1204.1 280.9 1166.5 298 1124.8 298 1042.6 298 975.8 231.3 975.8 149 975.8 66.7 1042.6 0 1124.8 0 1166.5 0 1204.1 17.1 1231.2 44.6L1196.2 72C1177.5 54.6 1152.4 44 1124.8 44 1066.9 44 1019.8 91 1019.8 149 1019.8 207 1066.9 254 1124.8 254 1152.4 254 1177.5 243.4 1196.2 226L1231.2 253.4 1231.2 253.4ZM256.2 253.4C229.1 280.9 191.5 298 149.8 298 67.6 298 0.8 231.3 0.8 149 0.8 66.7 67.6 0 149.8 0 191.5 0 229.1 17.1 256.2 44.6L221.2 72C202.5 54.6 177.4 44 149.8 44 91.9 44 44.8 91 44.8 149 44.8 207 91.9 254 149.8 254 177.4 254 202.5 243.4 221.2 226L256.2 253.4 256.2 253.4ZM332.8 9L332.8 291 382.8 291 382.8 9 332.8 9ZM848.8 9L848.8 291 898.8 291 898.8 9 848.8 9ZM616 289L773 9 459 9 616 289ZM688 59L616 189 544 59 688 59Z" fill="#231F20"/></g></svg>